<svg id="logosandtypes_com" xmlns="http://www.w3.org/2000/svg" viewBox="0 0 150 150.2"><style>.st1{fill:#014495}</style><g id="Layer_3_2_"><g id="Layer_2_1_"><path id="Layer_3" d="M0 .2h150v150H0V.2z" fill="none"/></g></g><g id="grupo_ibarra"><path class="st1" d="M73.4 43.7c8.9 0 16.2-7.2 16.2-16.2s-7.2-16.2-16.2-16.2-16.2 7.2-16.2 16.2 7.3 16.2 16.2 16.2zM18.4 130.2c29.5-21.1 41.5-49.1 38.9-82.7h29c.5 28.5-5 56.4-29.3 82.7H18.4z"/><path class="st1" d="M79.4 104.7C86 93.2 88.8 79 90.6 64c4.4 32.3 18.9 53.5 41.6 66h-34c-9.6-8.2-15.4-16.6-18.8-25.3z"/></g></svg>